<?xml version="1.0" encoding="utf-8"?>
<!-- Generator: Adobe Illustrator 26.5.0, SVG Export Plug-In . SVG Version: 6.00 Build 0)  -->
<svg version="1.1" id="Layer_1" xmlns="http://www.w3.org/2000/svg" xmlns:xlink="http://www.w3.org/1999/xlink" x="0px" y="0px"
	 viewBox="0 0 236 47" style="enable-background:new 0 0 236 47;" xml:space="preserve">
<style type="text/css">
	.st0{fill:#FFFFFF;}
</style>
<path class="st0" d="M79.9,30.6l8.6-8.6c0.4-0.4,0.5-0.9,0.5-1.5c0-0.5-0.2-1-0.6-1.4s-0.9-0.5-1.4-0.5c-0.6,0-1.2,0.3-1.6,0.7
	L73,32V20.8c0-0.6-0.2-1.1-0.6-1.5s-0.9-0.6-1.5-0.6s-1.1,0.2-1.5,0.6s-0.6,0.9-0.6,1.5v23.7c0,0.6,0.2,1.1,0.6,1.5s0.9,0.6,1.5,0.6
	s1.1-0.2,1.5-0.6c0.4-0.4,0.6-0.9,0.6-1.5v-7l3.9-4l9.6,12.2c0.4,0.6,1,0.9,1.7,0.9c0.6,0,1.1-0.2,1.5-0.6c0.4-0.4,0.6-0.9,0.6-1.5
	c0-0.5-0.2-0.9-0.5-1.4L79.9,30.6z"/>
<path class="st0" d="M113,27c-1.5-0.9-3.3-1.3-5.3-1.3s-3.8,0.4-5.4,1.3c-1.5,0.9-2.8,2.1-3.6,3.8c-0.8,1.6-1.3,3.5-1.3,5.5
	c0,2.1,0.4,3.9,1.3,5.5c0.8,1.6,2.1,2.9,3.6,3.8c1.5,0.9,3.4,1.3,5.4,1.3s3.8-0.4,5.3-1.3c1.5-0.9,2.8-2.1,3.6-3.8
	c0.9-1.6,1.3-3.5,1.3-5.5c0-2.1-0.4-3.9-1.3-5.5C115.8,29.1,114.6,27.9,113,27z M110.5,42.1c-0.9,0.5-1.8,0.7-2.8,0.7
	s-2-0.2-2.9-0.7c-0.9-0.4-1.6-1.2-2.2-2.2s-0.9-2.3-0.9-3.8s0.3-2.8,0.9-3.8s1.3-1.7,2.2-2.1c0.9-0.4,1.9-0.7,2.9-0.7
	s1.9,0.2,2.8,0.7c0.9,0.4,1.6,1.2,2.2,2.1c0.6,1,0.9,2.2,0.9,3.7s-0.3,2.8-0.9,3.8S111.4,41.7,110.5,42.1z"/>
<path class="st0" d="M143.7,17.4c-0.6,0-1.1,0.2-1.5,0.6s-0.6,0.9-0.6,1.6V28c-1.8-1.6-3.9-2.4-6.2-2.4c-1.6,0-3.2,0.4-4.7,1.3
	c-1.5,0.8-2.7,2.1-3.6,3.7s-1.4,3.5-1.4,5.6c0,2.1,0.5,4,1.4,5.6s2.1,2.8,3.6,3.7c1.5,0.8,3.1,1.3,4.7,1.3c2.3,0,4.4-0.8,6.2-2.4
	l0,0c0,0.6,0.2,1.1,0.6,1.5c0.4,0.4,0.9,0.6,1.5,0.6s1.1-0.2,1.5-0.6c0.4-0.4,0.6-0.9,0.6-1.5V19.6c0-0.6-0.2-1.1-0.6-1.5
	C144.8,17.6,144.3,17.4,143.7,17.4z M139,30.5c0.9,0.5,1.8,1.1,2.5,1.9v7.7c-0.7,0.8-1.6,1.4-2.5,1.9c-1,0.5-2,0.7-3.1,0.7
	c-1.8,0-3.2-0.5-4.3-1.7c-1.1-1.1-1.6-2.7-1.6-4.8s0.5-3.7,1.6-4.8c1.1-1.1,2.5-1.7,4.3-1.7C136.9,29.7,138,30,139,30.5z"/>
<path class="st0" d="M169.5,27c-1.4-0.9-3.2-1.4-5.1-1.4c-2.1,0-3.9,0.5-5.3,1.5c-1.4,1-2.5,2.3-3.2,3.9c-0.7,1.6-1,3.3-1,5.2
	c0,3.3,0.9,5.9,2.7,7.8c1.8,1.8,4.4,2.8,7.6,2.8c1.6,0,2.9-0.1,3.9-0.4c1-0.3,2-0.7,3-1.3c0.8-0.5,1.2-1.1,1.2-1.8
	c0-0.5-0.2-1-0.6-1.4c-0.4-0.3-0.8-0.5-1.3-0.5c-0.3,0-0.6,0.1-0.9,0.2c-0.7,0.4-1.5,0.7-2.3,0.9s-1.7,0.3-2.7,0.3
	c-1.9,0-3.4-0.5-4.5-1.4c-1-0.8-1.6-2-1.8-3.5h12.6c0.7,0,1.2-0.2,1.6-0.6c0.4-0.4,0.6-0.9,0.6-1.5c0-1.8-0.4-3.5-1.1-5
	C172.1,29.2,170.9,28,169.5,27z M162,30c0.8-0.4,1.6-0.6,2.4-0.6c0.8,0,1.6,0.2,2.4,0.6c0.8,0.4,1.4,0.9,2,1.7
	c0.5,0.7,0.8,1.5,0.9,2.5h-10.4c0.1-1,0.4-1.8,0.9-2.5C160.5,30.9,161.2,30.3,162,30z"/>
<path class="st0" d="M203.8,30.9h-7.4c-0.5,0-1.1,0.2-1.4,0.6c-0.4,0.4-0.6,0.8-0.6,1.4c0,0.5,0.2,1,0.6,1.4
	c0.4,0.4,0.9,0.6,1.4,0.6h5.9v6.3c-1.9,1-4,1.5-6.3,1.5c-2.1,0-3.8-0.4-5.3-1.3s-2.6-2.1-3.4-3.5c-0.8-1.5-1.2-3.2-1.2-5.1
	c0-2.1,0.4-3.9,1.3-5.4c0.8-1.5,2-2.6,3.5-3.4s3.2-1.2,5-1.2c1.3,0,2.6,0.2,3.8,0.5s2.3,0.9,3.5,1.6c0.3,0.2,0.6,0.2,1,0.2
	c0.6,0,1.1-0.2,1.4-0.6c0.4-0.4,0.5-0.9,0.5-1.4c0-0.4-0.1-0.7-0.3-1s-0.4-0.5-0.7-0.7c-1.4-0.9-2.9-1.6-4.4-2.1s-3.3-0.7-5.3-0.7
	c-2.5,0-4.8,0.6-6.9,1.8s-3.7,2.9-4.9,5s-1.8,4.6-1.8,7.4c0,2.7,0.6,5.1,1.7,7.3c1.1,2.1,2.8,3.8,4.9,5c2.1,1.2,4.5,1.8,7.2,1.8
	c3,0,6-0.7,8.9-2.2c0.5-0.2,0.9-0.6,1.2-1.1s0.5-1,0.5-1.6v-8.7c0-0.6-0.2-1.2-0.6-1.6C205,31.1,204.4,30.9,203.8,30.9z"/>
<path class="st0" d="M234.4,30.7c-0.9-1.6-2.1-2.9-3.6-3.8s-3.3-1.3-5.3-1.3s-3.8,0.4-5.4,1.3c-1.5,0.9-2.8,2.1-3.6,3.8
	c-0.8,1.6-1.3,3.5-1.3,5.5c0,2.1,0.4,3.9,1.3,5.5c0.8,1.6,2.1,2.9,3.6,3.8c1.5,0.9,3.4,1.3,5.4,1.3s3.8-0.4,5.3-1.3
	c1.5-0.9,2.8-2.1,3.6-3.8c0.9-1.6,1.3-3.5,1.3-5.5S235.2,32.3,234.4,30.7z M228.3,42.1c-0.9,0.5-1.8,0.7-2.8,0.7s-2-0.2-2.9-0.7
	c-0.9-0.4-1.6-1.2-2.2-2.2c-0.6-1-0.9-2.3-0.9-3.8s0.3-2.8,0.9-3.8c0.6-1,1.3-1.7,2.2-2.1s1.9-0.7,2.9-0.7s1.9,0.2,2.8,0.7
	c0.9,0.4,1.6,1.2,2.2,2.1c0.6,1,0.9,2.2,0.9,3.7s-0.3,2.8-0.9,3.8C229.9,41,229.1,41.7,228.3,42.1z"/>
<path class="st0" d="M19.3,38.9c0.3,0.2,0.6,0.3,1,0.3c0.5,0,0.9-0.2,1.2-0.6l3.9-4.9l4.9,4.9c0.3,0.3,0.7,0.5,1.1,0.5
	s0.8-0.2,1.1-0.4c0.6-0.6,0.6-1.6,0-2.2l-5.1-5.2l5.2-6.6c0.5-0.7,0.4-1.6-0.2-2.2c-0.3-0.2-0.6-0.3-1-0.3c-0.5,0-0.9,0.2-1.2,0.6
	l-5.9,7.5l0,0c-0.1,0.1-0.2,0.2-0.2,0.3L22,33.3v-9.5c0-0.9-0.7-1.5-1.5-1.5S19,23,19,23.8v13.8c0,0,0,0,0,0.1
	C18.7,38.1,18.9,38.6,19.3,38.9z"/>
<path class="st0" d="M50.6,31L50.6,31c-3.9-4-7.7-8.1-11.3-12.2S32.2,10.4,28.9,6l2.7-2.7C32,2.9,32.2,2.5,32.2,2S32,1,31.7,0.7
	C31.3,0.2,30.8,0,30.3,0s-1,0.2-1.3,0.5l-3.2,3.1l-3.2-3.1C22.3,0.2,21.8,0,21.3,0s-1,0.2-1.3,0.6c-0.4,0.4-0.6,0.8-0.6,1.3
	s0.2,1,0.6,1.4l2.6,2.6c-3.4,4.5-7,8.9-10.6,13.2c-3.5,4.1-7.2,8-11,11.8l0,0L0.9,31c-0.9,1.1-1.1,2.5-0.5,3.8s1.8,2.1,3.2,2.1h5.7
	V45c0,1,0.8,1.8,1.8,1.8h10c1,0,1.8-0.8,1.8-1.8s-0.8-1.8-1.8-1.8h-8.2V35c0-0.3-0.1-0.6-0.2-0.8c-0.3-0.7-1-1.1-1.7-1.1H4.2
	c3.7-3.7,7.3-7.6,10.7-11.5c3.8-4.4,7.4-8.9,10.9-13.5c3.4,4.5,7,8.9,10.7,13.2c3.5,4,7.1,8,10.9,11.8h-6.8c-0.3,0-0.6,0.1-0.9,0.2
	c-0.8,0.2-1.3,0.9-1.3,1.7v8.2h-8.2c-1,0-1.8,0.8-1.8,1.8s0.8,1.8,1.8,1.8h10c1,0,1.8-0.8,1.8-1.8v-8.2h6c1.4,0,2.6-0.8,3.2-2.1
	C51.7,33.5,51.5,32,50.6,31z"/>
</svg>
